<svg width="276" height="59" viewBox="0 0 276 59" fill="none" xmlns="http://www.w3.org/2000/svg">
<g filter="url(#filter0_d_12_253)">
<path d="M4.39205 28.4109V24.5455H24.701V28.4109H16.8335V50H12.2596V28.4109H4.39205ZM31.3132 50.3853C30.1035 50.3853 29.0138 50.1699 28.0444 49.739C27.0832 49.2998 26.3209 48.6535 25.7575 47.8001C25.2023 46.9466 24.9247 45.8943 24.9247 44.6431C24.9247 43.5659 25.1236 42.6752 25.5213 41.9709C25.919 41.2666 26.4618 40.7031 27.1495 40.2805C27.8372 39.858 28.612 39.5389 29.4737 39.3235C30.3438 39.0998 31.2428 38.9382 32.1708 38.8388C33.2894 38.7228 34.1967 38.6192 34.8928 38.5281C35.5888 38.4286 36.0942 38.2795 36.4091 38.0806C36.7322 37.8735 36.8938 37.5544 36.8938 37.1236V37.049C36.8938 36.1127 36.6162 35.3877 36.0611 34.8739C35.5059 34.3602 34.7063 34.1033 33.6623 34.1033C32.5603 34.1033 31.6861 34.3436 31.0398 34.8242C30.4018 35.3048 29.9709 35.8724 29.7472 36.527L25.5462 35.9304C25.8776 34.7704 26.4245 33.8009 27.1868 33.022C27.9491 32.2348 28.8813 31.6465 29.9833 31.2571C31.0853 30.8594 32.3034 30.6605 33.6374 30.6605C34.5572 30.6605 35.4728 30.7682 36.3842 30.9837C37.2957 31.1991 38.1284 31.5554 38.8825 32.0526C39.6365 32.5414 40.2414 33.2085 40.6971 34.0536C41.1611 34.8988 41.3931 35.9553 41.3931 37.223V50H37.0678V47.3775H36.9187C36.6452 47.9078 36.2599 48.4049 35.7628 48.869C35.2739 49.3247 34.6566 49.6934 33.9109 49.9751C33.1734 50.2486 32.3075 50.3853 31.3132 50.3853ZM32.4815 47.0792C33.3847 47.0792 34.1677 46.901 34.8306 46.5447C35.4935 46.1802 36.0031 45.6996 36.3594 45.103C36.724 44.5064 36.9062 43.8559 36.9062 43.1516V40.902C36.7654 41.018 36.5251 41.1257 36.1854 41.2251C35.8539 41.3246 35.4811 41.4116 35.0668 41.4862C34.6525 41.5607 34.2423 41.627 33.8363 41.685C33.4303 41.743 33.0781 41.7927 32.7798 41.8342C32.1087 41.9253 31.5079 42.0745 30.9776 42.2816C30.4473 42.4888 30.0289 42.7788 29.7223 43.1516C29.4157 43.5162 29.2624 43.9885 29.2624 44.5685C29.2624 45.3971 29.5649 46.0227 30.1697 46.4453C30.7746 46.8679 31.5452 47.0792 32.4815 47.0792ZM49.5962 30.9091L53.4492 37.9563L57.3643 30.9091H62.1246L56.37 40.4545L62.2241 50H57.4886L53.4492 43.1268L49.4471 50H44.6744L50.4911 40.4545L44.8235 30.9091H49.5962ZM73.3387 50.3729C71.4246 50.3729 69.7716 49.9751 68.3795 49.1797C66.9958 48.3759 65.931 47.2408 65.1853 45.7741C64.4395 44.2992 64.0667 42.5633 64.0667 40.5664C64.0667 38.6026 64.4395 36.8791 65.1853 35.396C65.9393 33.9045 66.9916 32.7444 68.3422 31.9158C69.6929 31.079 71.2796 30.6605 73.1025 30.6605C74.2791 30.6605 75.3895 30.8511 76.4335 31.2322C77.4858 31.6051 78.4139 32.1851 79.2176 32.9723C80.0296 33.7595 80.6676 34.7621 81.1317 35.9801C81.5957 37.1899 81.8277 38.6316 81.8277 40.3054V41.685H66.1796V38.6523H77.5148C77.5065 37.7906 77.3201 37.0241 76.9555 36.353C76.5909 35.6735 76.0814 35.1391 75.4268 34.7496C74.7805 34.3602 74.0264 34.1655 73.1647 34.1655C72.2449 34.1655 71.4371 34.3892 70.741 34.8366C70.045 35.2758 69.5023 35.8558 69.1128 36.5767C68.7317 37.2893 68.537 38.0723 68.5287 38.9258V41.5732C68.5287 42.6835 68.7317 43.6364 69.1377 44.4318C69.5437 45.219 70.1113 45.8239 70.8405 46.2464C71.5696 46.6607 72.4231 46.8679 73.4008 46.8679C74.0554 46.8679 74.6479 46.7768 75.1782 46.5945C75.7085 46.4039 76.1684 46.1263 76.5578 45.7617C76.9472 45.3971 77.2414 44.9455 77.4403 44.407L81.6412 44.8793C81.3761 45.9896 80.8707 46.959 80.1249 47.7876C79.3875 48.608 78.4429 49.246 77.2911 49.7017C76.1394 50.1491 74.8219 50.3729 73.3387 50.3729ZM92.7186 50.3356C91.2188 50.3356 89.8765 49.9503 88.6916 49.1797C87.5067 48.4091 86.5704 47.2905 85.8826 45.8239C85.1949 44.3572 84.851 42.5758 84.851 40.4794C84.851 38.3582 85.199 36.5684 85.8951 35.1101C86.5994 33.6435 87.5481 32.5373 88.7413 31.7915C89.9345 31.0375 91.2644 30.6605 92.731 30.6605C93.8496 30.6605 94.7694 30.8511 95.4902 31.2322C96.2111 31.6051 96.7828 32.0567 97.2054 32.587C97.628 33.109 97.9553 33.602 98.1873 34.0661H98.3738V24.5455H102.885V50H98.4608V46.9922H98.1873C97.9553 47.4562 97.6197 47.9492 97.1806 48.4712C96.7414 48.985 96.1614 49.4241 95.4405 49.7887C94.7196 50.1533 93.8123 50.3356 92.7186 50.3356ZM93.9739 46.6442C94.9268 46.6442 95.7388 46.3873 96.41 45.8736C97.0811 45.3516 97.5907 44.6265 97.9387 43.6985C98.2868 42.7705 98.4608 41.6892 98.4608 40.4545C98.4608 39.2199 98.2868 38.1469 97.9387 37.2354C97.599 36.324 97.0936 35.6155 96.4224 35.1101C95.7595 34.6046 94.9434 34.3519 93.9739 34.3519C92.9713 34.3519 92.1344 34.6129 91.4632 35.1349C90.7921 35.657 90.2866 36.3778 89.9469 37.2976C89.6072 38.2173 89.4373 39.2696 89.4373 40.4545C89.4373 41.6477 89.6072 42.7125 89.9469 43.6488C90.2949 44.5768 90.8045 45.3101 91.4757 45.8487C92.1551 46.379 92.9879 46.6442 93.9739 46.6442ZM112.49 24.5455V50H107.879V24.5455H112.49ZM121.784 38.8139V50H117.284V30.9091H121.585V34.1531H121.809C122.248 33.0842 122.948 32.2348 123.909 31.6051C124.879 30.9754 126.076 30.6605 127.501 30.6605C128.819 30.6605 129.966 30.9422 130.944 31.5057C131.93 32.0691 132.692 32.8853 133.231 33.9542C133.778 35.0231 134.047 36.3198 134.039 37.8445V50H129.539V38.5405C129.539 37.2644 129.208 36.266 128.545 35.5451C127.891 34.8242 126.983 34.4638 125.823 34.4638C125.036 34.4638 124.336 34.6378 123.723 34.9858C123.118 35.3255 122.641 35.8185 122.293 36.4648C121.954 37.1112 121.784 37.8942 121.784 38.8139ZM146.94 50.3729C145.034 50.3729 143.398 49.9544 142.031 49.1175C140.672 48.2807 139.623 47.1248 138.886 45.6499C138.157 44.1667 137.792 42.4598 137.792 40.5291C137.792 38.5902 138.165 36.8791 138.911 35.396C139.657 33.9045 140.709 32.7444 142.068 31.9158C143.435 31.079 145.051 30.6605 146.915 30.6605C148.465 30.6605 149.836 30.9464 151.029 31.5181C152.231 32.0816 153.188 32.8812 153.9 33.9169C154.613 34.9444 155.019 36.1458 155.118 37.5213H150.818C150.644 36.6016 150.23 35.8351 149.575 35.2219C148.929 34.6005 148.063 34.2898 146.977 34.2898C146.058 34.2898 145.25 34.5384 144.554 35.0355C143.858 35.5244 143.315 36.2287 142.925 37.1484C142.544 38.0682 142.354 39.1702 142.354 40.4545C142.354 41.7554 142.544 42.8741 142.925 43.8104C143.307 44.7384 143.841 45.4551 144.529 45.9606C145.225 46.4577 146.041 46.7063 146.977 46.7063C147.64 46.7063 148.233 46.582 148.755 46.3335C149.285 46.0766 149.728 45.7079 150.085 45.2273C150.441 44.7467 150.685 44.1625 150.818 43.4748H155.118C155.011 44.8254 154.613 46.0227 153.925 47.0668C153.237 48.1025 152.301 48.9145 151.116 49.5028C149.931 50.0829 148.539 50.3729 146.94 50.3729ZM167.14 50.3729C165.276 50.3729 163.66 49.9627 162.293 49.1424C160.926 48.3221 159.865 47.1745 159.111 45.6996C158.365 44.2247 157.992 42.5012 157.992 40.5291C157.992 38.5571 158.365 36.8294 159.111 35.3462C159.865 33.863 160.926 32.7113 162.293 31.891C163.66 31.0707 165.276 30.6605 167.14 30.6605C169.005 30.6605 170.62 31.0707 171.987 31.891C173.355 32.7113 174.411 33.863 175.157 35.3462C175.911 36.8294 176.288 38.5571 176.288 40.5291C176.288 42.5012 175.911 44.2247 175.157 45.6996C174.411 47.1745 173.355 48.3221 171.987 49.1424C170.62 49.9627 169.005 50.3729 167.14 50.3729ZM167.165 46.7685C168.176 46.7685 169.021 46.4909 169.701 45.9357C170.38 45.3723 170.885 44.6183 171.217 43.6737C171.557 42.729 171.726 41.6767 171.726 40.5167C171.726 39.3484 171.557 38.2919 171.217 37.3473C170.885 36.3944 170.38 35.6362 169.701 35.0728C169.021 34.5094 168.176 34.2276 167.165 34.2276C166.129 34.2276 165.268 34.5094 164.58 35.0728C163.9 35.6362 163.391 36.3944 163.051 37.3473C162.72 38.2919 162.554 39.3484 162.554 40.5167C162.554 41.6767 162.72 42.729 163.051 43.6737C163.391 44.6183 163.9 45.3723 164.58 45.9357C165.268 46.4909 166.129 46.7685 167.165 46.7685ZM180.107 50V30.9091H184.407V34.1531H184.631C185.029 33.0593 185.687 32.2058 186.607 31.5927C187.527 30.9712 188.625 30.6605 189.901 30.6605C191.193 30.6605 192.283 30.9754 193.17 31.6051C194.064 32.2266 194.694 33.0759 195.059 34.1531H195.258C195.68 33.0924 196.393 32.2473 197.395 31.6175C198.406 30.9795 199.604 30.6605 200.987 30.6605C202.744 30.6605 204.177 31.2157 205.288 32.326C206.398 33.4363 206.953 35.0562 206.953 37.1857V50H202.442V37.8817C202.442 36.6969 202.127 35.831 201.497 35.2841C200.867 34.7289 200.097 34.4513 199.185 34.4513C198.1 34.4513 197.25 34.7911 196.637 35.4705C196.032 36.1417 195.73 37.0159 195.73 38.093V50H191.318V37.6953C191.318 36.7093 191.019 35.9221 190.423 35.3338C189.834 34.7455 189.064 34.4513 188.111 34.4513C187.465 34.4513 186.876 34.6171 186.346 34.9485C185.816 35.2717 185.393 35.7315 185.078 36.3281C184.763 36.9164 184.606 37.6042 184.606 38.3913V50H180.107ZM219.97 50.3729C218.055 50.3729 216.402 49.9751 215.01 49.1797C213.627 48.3759 212.562 47.2408 211.816 45.7741C211.07 44.2992 210.698 42.5633 210.698 40.5664C210.698 38.6026 211.07 36.8791 211.816 35.396C212.57 33.9045 213.622 32.7444 214.973 31.9158C216.324 31.079 217.91 30.6605 219.733 30.6605C220.91 30.6605 222.02 30.8511 223.064 31.2322C224.117 31.6051 225.045 32.1851 225.848 32.9723C226.66 33.7595 227.299 34.7621 227.763 35.9801C228.227 37.1899 228.459 38.6316 228.459 40.3054V41.685H212.81V38.6523H224.146C224.137 37.7906 223.951 37.0241 223.586 36.353C223.222 35.6735 222.712 35.1391 222.058 34.7496C221.411 34.3602 220.657 34.1655 219.796 34.1655C218.876 34.1655 218.068 34.3892 217.372 34.8366C216.676 35.2758 216.133 35.8558 215.744 36.5767C215.363 37.2893 215.168 38.0723 215.16 38.9258V41.5732C215.16 42.6835 215.363 43.6364 215.769 44.4318C216.175 45.219 216.742 45.8239 217.471 46.2464C218.2 46.6607 219.054 46.8679 220.032 46.8679C220.686 46.8679 221.279 46.7768 221.809 46.5945C222.339 46.4039 222.799 46.1263 223.189 45.7617C223.578 45.3971 223.872 44.9455 224.071 44.407L228.272 44.8793C228.007 45.9896 227.502 46.959 226.756 47.7876C226.018 48.608 225.074 49.246 223.922 49.7017C222.77 50.1491 221.453 50.3729 219.97 50.3729Z" fill="white"/>
</g>
<path d="M245.523 23.4174C248.948 23.4174 252.377 23.4174 255.8 23.4174C260.944 17.8642 250.665 12.3109 255.8 6.7598C252.377 6.7598 248.948 6.7598 245.523 6.7598C240.379 12.3109 250.665 17.8642 245.523 23.4174ZM246.862 15.0915C245.823 13.023 247.143 11.3498 249.282 11.3498C251.342 11.3498 253.425 13.023 254.465 15.0915C255.504 17.1578 254.184 18.831 252.047 18.831C249.981 18.8296 247.901 17.1542 246.862 15.0915Z" fill="#884DE8"/>
<path d="M249.025 16.2559C249.398 16.4978 249.751 16.6198 250.085 16.6198C250.462 16.6198 250.707 16.5078 250.823 16.283C250.936 16.0576 250.93 15.7108 250.804 15.2399C251.405 15.2399 252.008 15.2399 252.605 15.2399C252.743 15.6059 252.716 15.8585 252.529 15.9955C252.424 16.0718 252.224 16.1182 251.929 16.1353C252.017 16.3266 252.1 16.5192 252.176 16.7119C252.558 16.7119 252.831 16.6512 253.002 16.5256C253.319 16.3002 253.359 15.8721 253.107 15.2406C253.32 15.2406 253.535 15.2406 253.747 15.2406C253.701 15.1371 253.651 15.0337 253.606 14.9324C253.393 14.9324 253.177 14.9324 252.964 14.9324C252.737 14.5392 252.51 14.2388 252.284 14.0305C251.873 13.6552 251.384 13.4689 250.794 13.4689C250.391 13.4689 250.141 13.6152 250.059 13.907C250.014 14.0876 250.025 14.4293 250.118 14.9338C249.583 14.9338 249.043 14.9338 248.508 14.9338C248.383 14.6334 248.4 14.4151 248.56 14.2788C248.647 14.2053 248.772 14.1603 248.932 14.1454C248.848 13.9556 248.766 13.7651 248.686 13.576C248.318 13.5874 248.068 13.7094 247.943 13.9392C247.814 14.1696 247.836 14.5028 248.002 14.9345C247.86 14.9345 247.714 14.9345 247.568 14.9345C247.615 15.038 247.665 15.14 247.714 15.2435C247.86 15.2435 248.005 15.2435 248.155 15.2435C248.358 15.6766 248.65 16.0148 249.025 16.2559ZM250.712 14.3508C250.766 14.1532 250.93 14.0519 251.207 14.0519C251.382 14.0519 251.552 14.0883 251.715 14.1632C252.036 14.303 252.291 14.5592 252.477 14.9316C251.899 14.9316 251.318 14.9316 250.741 14.9316C250.689 14.6598 250.679 14.4686 250.712 14.3508ZM250.201 15.2413C250.262 15.4846 250.266 15.6766 250.209 15.82C250.151 15.9634 250.011 16.0347 249.794 16.0347C249.613 16.0347 249.413 15.9748 249.193 15.8528C248.975 15.7315 248.795 15.5281 248.652 15.242C249.166 15.2413 249.685 15.2413 250.201 15.2413Z" fill="#884DE8"/>
<path d="M258.347 12.5813C260.936 12.5813 263.526 12.5813 266.113 12.5813C269.994 8.38732 262.229 4.19402 266.113 0C263.527 0 260.936 0 258.347 0C254.466 4.19687 262.229 8.39018 258.347 12.5813ZM259.359 6.29103C258.572 4.72987 259.567 3.46481 261.185 3.46481C262.739 3.46481 264.317 4.72915 265.099 6.2896C265.882 7.85076 264.886 9.11368 263.271 9.11368C261.718 9.11582 260.143 7.8529 259.359 6.29103Z" fill="#884DE8"/>
<path d="M260.994 7.17507C261.274 7.35844 261.541 7.44905 261.794 7.44905C262.077 7.44905 262.263 7.36415 262.352 7.19433C262.437 7.02452 262.434 6.76337 262.337 6.40733C262.791 6.40733 263.24 6.40733 263.697 6.40733C263.801 6.68417 263.781 6.87468 263.639 6.976C263.561 7.03379 263.411 7.06947 263.188 7.08231C263.253 7.22715 263.314 7.37057 263.37 7.51684C263.661 7.51684 263.866 7.47046 263.994 7.37699C264.236 7.20789 264.264 6.88395 264.074 6.40661C264.236 6.40661 264.396 6.40661 264.559 6.40661C264.525 6.32884 264.485 6.25036 264.454 6.17258C264.291 6.17258 264.13 6.17258 263.969 6.17258C263.796 5.87505 263.627 5.64958 263.451 5.49189C263.139 5.20863 262.771 5.06735 262.327 5.06735C262.02 5.06735 261.834 5.17723 261.776 5.39914C261.74 5.5347 261.748 5.79228 261.818 6.17187C261.411 6.17187 261.008 6.17187 260.601 6.17187C260.505 5.94497 260.517 5.78087 260.641 5.67883C260.706 5.62318 260.801 5.58893 260.92 5.57894C260.861 5.43481 260.798 5.2914 260.737 5.14727C260.457 5.15726 260.27 5.24716 260.172 5.42197C260.077 5.59678 260.093 5.84651 260.219 6.17401C260.112 6.17401 259.998 6.17401 259.892 6.17401C259.927 6.2525 259.965 6.32884 259.998 6.40876C260.108 6.40876 260.222 6.40876 260.332 6.40876C260.49 6.73626 260.708 6.98955 260.994 7.17507ZM262.642 5.51044C262.771 5.51044 262.902 5.54041 263.027 5.59535C263.27 5.70024 263.461 5.89574 263.604 6.17544C263.166 6.17544 262.726 6.17544 262.292 6.17544C262.255 5.97066 262.248 5.82582 262.272 5.73877C262.31 5.58679 262.434 5.51044 262.642 5.51044ZM261.884 6.40661C261.931 6.5907 261.933 6.73483 261.89 6.84328C261.849 6.95174 261.738 7.00525 261.574 7.00525C261.438 7.00525 261.288 6.95959 261.117 6.86683C260.951 6.77336 260.813 6.62209 260.708 6.40447C261.102 6.40661 261.491 6.40661 261.884 6.40661Z" fill="#884DE8"/>
<path d="M275.173 39.6006C276.008 38.7444 276.084 37.149 275.944 35.017C274.964 34.9535 273.511 35.1133 273.001 35.017C271.756 32.5789 269.966 30.6767 267.413 29.5194C267.501 27.9247 267.72 26.4591 268.653 25.6992C266.374 25.5458 264.452 27.0592 263.224 28.4491C258.626 23.7471 244.968 22.9108 238.395 29.6699C237.261 29.5822 237.389 27.3196 238.858 27.6842C236.463 26.0795 235.144 30.4826 237.461 31.0456C235.528 33.7605 235.347 39.5963 237.928 41.7383C238.305 44.9562 238.882 47.9751 240.472 50H245.684C245.55 48.9583 245.412 47.8445 245.529 46.6287C248.696 47.3386 252.461 47.5434 256.235 47.2401C256.817 48.1927 257.383 49.1588 258.078 49.9993H263.239C263.053 48.6529 262.85 47.2473 263.219 45.8666C264.459 45.629 270.852 44.0308 275.173 39.6006ZM268.049 32.7808C268.758 32.7808 269.331 33.3474 269.331 34.0438C269.331 34.7409 268.758 35.3081 268.049 35.3081C267.338 35.3081 266.765 34.7401 266.765 34.0438C266.766 33.3474 267.338 32.7808 268.049 32.7808ZM257.378 27.8833C253.824 26.6789 249.924 26.6917 246.393 27.9197L245.991 27.1056C249.779 25.787 253.964 25.7706 257.774 27.0628L257.378 27.8833Z" fill="#884DE8"/>
<defs>
<filter id="filter0_d_12_253" x="0.392029" y="24.5455" width="232.067" height="33.8398" filterUnits="userSpaceOnUse" color-interpolation-filters="sRGB">
<feFlood flood-opacity="0" result="BackgroundImageFix"/>
<feColorMatrix in="SourceAlpha" type="matrix" values="0 0 0 0 0 0 0 0 0 0 0 0 0 0 0 0 0 0 127 0" result="hardAlpha"/>
<feOffset dy="4"/>
<feGaussianBlur stdDeviation="2"/>
<feComposite in2="hardAlpha" operator="out"/>
<feColorMatrix type="matrix" values="0 0 0 0 0 0 0 0 0 0 0 0 0 0 0 0 0 0 0.25 0"/>
<feBlend mode="normal" in2="BackgroundImageFix" result="effect1_dropShadow_12_253"/>
<feBlend mode="normal" in="SourceGraphic" in2="effect1_dropShadow_12_253" result="shape"/>
</filter>
</defs>
</svg>
